<svg xmlns="http://www.w3.org/2000/svg" xmlns:xlink="http://www.w3.org/1999/xlink" width="500" zoomAndPan="magnify" viewBox="0 0 375 374.999991" height="500" preserveAspectRatio="xMidYMid meet" version="1.2"><defs><clipPath id="0a77025ed8"><path d="M 96 38 L 284 38 L 284 227 L 96 227 Z M 96 38 "/></clipPath><clipPath id="db55baa63e"><path d="M 194.628906 0.00390625 L 322.632812 137.054688 L 185.582031 265.058594 L 57.574219 128.007812 Z M 194.628906 0.00390625 "/></clipPath><clipPath id="6b2af10d08"><path d="M 258.628906 68.527344 C 223.28125 30.683594 163.949219 28.65625 126.101562 64.003906 C 88.257812 99.351562 86.230469 158.6875 121.578125 196.535156 C 156.925781 234.378906 216.261719 236.40625 254.109375 201.054688 C 291.953125 165.707031 293.976562 106.375 258.628906 68.527344 Z M 258.628906 68.527344 "/></clipPath><clipPath id="2b895b7928"><path d="M 115 165 L 236 165 L 236 352 L 115 352 Z M 115 165 "/></clipPath><clipPath id="b7ec794942"><path d="M 52.363281 242.695312 L 140.648438 163.648438 L 259.21875 296.074219 L 170.933594 375.121094 Z M 52.363281 242.695312 "/></clipPath><clipPath id="d264f4c5d7"><path d="M 52.363281 242.695312 L 140.648438 163.648438 L 259.21875 296.074219 L 170.933594 375.121094 Z M 52.363281 242.695312 "/></clipPath><clipPath id="cb2b26cff9"><path d="M 108 140 L 168 140 L 168 204 L 108 204 Z M 108 140 "/></clipPath><clipPath id="480008118b"><path d="M 120.160156 140.914062 L 167.648438 194.035156 L 140.808594 218.027344 L 93.324219 164.910156 Z M 120.160156 140.914062 "/></clipPath><clipPath id="1b2b15db26"><path d="M 120.160156 140.914062 L 167.648438 194.035156 L 140.808594 218.027344 L 93.324219 164.910156 Z M 120.160156 140.914062 "/></clipPath><clipPath id="3cb4f0bed3"><path d="M 132 75 L 248 75 L 248 190 L 132 190 Z M 132 75 "/></clipPath><clipPath id="63cd59c662"><path d="M 192.863281 51.738281 L 270.898438 135.289062 L 187.347656 213.320312 L 109.316406 129.773438 Z M 192.863281 51.738281 "/></clipPath><clipPath id="cd84b78ac1"><path d="M 231.878906 93.511719 C 210.332031 70.441406 174.160156 69.207031 151.089844 90.753906 C 128.019531 112.304688 126.785156 148.476562 148.332031 171.546875 C 169.878906 194.617188 206.050781 195.851562 229.125 174.304688 C 252.195312 152.757812 253.429688 116.585938 231.878906 93.511719 Z M 231.878906 93.511719 "/></clipPath><clipPath id="a917bc5824"><path d="M 164 106 L 217 106 L 217 159 L 164 159 Z M 164 106 "/></clipPath><clipPath id="d142525ddd"><path d="M 191.359375 95.796875 L 226.839844 133.78125 L 188.855469 169.261719 L 153.375 131.277344 Z M 191.359375 95.796875 "/></clipPath><clipPath id="b383831192"><path d="M 209.101562 114.789062 C 199.304688 104.300781 182.859375 103.738281 172.367188 113.535156 C 161.878906 123.332031 161.316406 139.777344 171.113281 150.269531 C 180.910156 160.757812 197.355469 161.320312 207.847656 151.523438 C 218.335938 141.726562 218.898438 125.28125 209.101562 114.789062 Z M 209.101562 114.789062 "/></clipPath></defs><g id="8f0aad90ab"><g clip-rule="nonzero" clip-path="url(#0a77025ed8)"><g clip-rule="nonzero" clip-path="url(#db55baa63e)"><g clip-rule="nonzero" clip-path="url(#6b2af10d08)"><path style=" stroke:none;fill-rule:nonzero;fill:#5e17eb;fill-opacity:1;" d="M 194.628906 0.00390625 L 322.632812 137.054688 L 185.582031 265.058594 L 57.574219 128.007812 Z M 194.628906 0.00390625 "/></g></g></g><g clip-rule="nonzero" clip-path="url(#2b895b7928)"><g clip-rule="nonzero" clip-path="url(#b7ec794942)"><g clip-rule="nonzero" clip-path="url(#d264f4c5d7)"><path style=" stroke:none;fill-rule:nonzero;fill:#5e17eb;fill-opacity:1;" d="M 137.605469 166.445312 L 117.039062 184.859375 C 115.417969 186.3125 115.277344 188.804688 116.730469 190.429688 L 195.097656 277.957031 C 203.636719 287.488281 203.78125 302.351562 194.585938 311.253906 C 184.839844 320.691406 169.347656 320.140625 160.394531 310.140625 C 158.941406 308.519531 156.445312 308.382812 154.824219 309.832031 L 134.257812 328.25 C 132.617188 329.71875 132.53125 332.234375 134.003906 333.875 C 154.320312 356.5 190.570312 357.230469 214.851562 335.492188 C 239.152344 313.730469 242.402344 277.578125 222.09375 254.894531 L 143.175781 166.753906 C 141.722656 165.128906 139.226562 164.992188 137.605469 166.445312 Z M 137.605469 166.445312 "/></g></g></g><g clip-rule="nonzero" clip-path="url(#cb2b26cff9)"><g clip-rule="nonzero" clip-path="url(#480008118b)"><g clip-rule="nonzero" clip-path="url(#1b2b15db26)"><path style=" stroke:none;fill-rule:nonzero;fill:#5e17eb;fill-opacity:1;" d="M 167.625 194.007812 C 152.957031 207.121094 130.441406 205.859375 117.328125 191.191406 C 104.21875 176.523438 105.515625 154.054688 120.183594 140.941406 Z M 167.625 194.007812 "/></g></g></g><g clip-rule="nonzero" clip-path="url(#3cb4f0bed3)"><g clip-rule="nonzero" clip-path="url(#63cd59c662)"><g clip-rule="nonzero" clip-path="url(#cd84b78ac1)"><path style=" stroke:none;fill-rule:nonzero;fill:#ffffff;fill-opacity:1;" d="M 192.863281 51.738281 L 270.898438 135.289062 L 187.347656 213.320312 L 109.316406 129.773438 Z M 192.863281 51.738281 "/></g></g></g><g clip-rule="nonzero" clip-path="url(#a917bc5824)"><g clip-rule="nonzero" clip-path="url(#d142525ddd)"><g clip-rule="nonzero" clip-path="url(#b383831192)"><path style=" stroke:none;fill-rule:nonzero;fill:#f2184f;fill-opacity:1;" d="M 191.359375 95.796875 L 226.839844 133.78125 L 188.855469 169.261719 L 153.375 131.277344 Z M 191.359375 95.796875 "/></g></g></g></g></svg>